<svg xmlns="http://www.w3.org/2000/svg" viewBox="0 0 820 560" font-family="Menlo, Monaco, Consolas, 'Liberation Mono', monospace" font-size="13">
  <defs>
    <linearGradient id="titleBar" x1="0" x2="0" y1="0" y2="1">
      <stop offset="0" stop-color="#2b2622"/>
      <stop offset="1" stop-color="#1f1b18"/>
    </linearGradient>
    <filter id="shadow" x="-10%" y="-10%" width="120%" height="120%">
      <feDropShadow dx="0" dy="8" stdDeviation="14" flood-opacity="0.4"/>
    </filter>
  </defs>

  <rect x="10" y="10" width="800" height="540" rx="10" fill="#1A1915" filter="url(#shadow)"/>
  <path d="M10,20 Q10,10 20,10 L800,10 Q810,10 810,20 L810,40 L10,40 Z" fill="url(#titleBar)"/>
  <line x1="10" y1="40" x2="810" y2="40" stroke="#000" stroke-opacity="0.4"/>
  <circle cx="28" cy="25" r="6" fill="#ff5f57"/>
  <circle cx="48" cy="25" r="6" fill="#febc2e"/>
  <circle cx="68" cy="25" r="6" fill="#28c841"/>
  <text x="410" y="29" fill="#8a7f73" text-anchor="middle" font-size="12">my-api — zsh</text>

  <!-- Prompt -->
  <text x="24" y="72" fill="#E8DDD3" xml:space="preserve"><tspan fill="#D97757">❯</tspan> ctxcore reflect</text>

  <text x="24" y="100" fill="#E8DDD3">Reflexion cycle — 147 memories</text>

  <!-- Pass summary: four check marks -->
  <text x="24" y="132" fill="#8BA67E">✓</text>
  <text x="44" y="132" fill="#E8DDD3">Consolidation:</text>
  <text x="180" y="132" fill="#D97757">3 suggestion(s)</text>

  <text x="24" y="152" fill="#8BA67E">✓</text>
  <text x="44" y="152" fill="#E8DDD3">Contradictions:</text>
  <text x="180" y="152" fill="#D97757">2 suggestion(s)</text>

  <text x="24" y="172" fill="#8BA67E">✓</text>
  <text x="44" y="172" fill="#E8DDD3">Patterns:</text>
  <text x="180" y="172" fill="#D97757">4 suggestion(s)</text>

  <text x="24" y="192" fill="#8BA67E">✓</text>
  <text x="44" y="192" fill="#E8DDD3">Recalibration:</text>
  <text x="180" y="192" fill="#D97757">5 suggestion(s)</text>

  <!-- Consolidation section -->
  <text x="24" y="228" fill="#BFA390">[consolidation]</text>
  <text x="160" y="228" fill="#D1C4B5">3 suggestion(s), 8 memories affected</text>

  <text x="44" y="248" fill="#E8DDD3">1.</text>
  <text x="66" y="248" fill="#E8DDD3">[</text>
  <text x="74" y="248" fill="#D97757">merge</text>
  <text x="110" y="248" fill="#E8DDD3">] targets: a8f2, 99c1, 3b44</text>

  <text x="66" y="266" fill="#D1C4B5">reason: three JWT auth memories describe the same decision</text>

  <!-- Contradiction section -->
  <text x="24" y="302" fill="#BFA390">[contradiction]</text>
  <text x="160" y="302" fill="#D1C4B5">2 suggestion(s), 4 memories affected</text>

  <text x="44" y="322" fill="#E8DDD3">1.</text>
  <text x="66" y="322" fill="#E8DDD3">[</text>
  <text x="74" y="322" fill="#D97757">create-connection</text>
  <text x="202" y="322" fill="#E8DDD3">]</text>
  <text x="212" y="322" fill="#EBB299">PostgreSQL vs MongoDB</text>

  <text x="66" y="340" fill="#D1C4B5">reason: payments on MongoDB contradicts "PostgreSQL everywhere"</text>

  <!-- Pattern section -->
  <text x="24" y="376" fill="#BFA390">[pattern]</text>
  <text x="160" y="376" fill="#D1C4B5">4 suggestion(s), 12 memories affected</text>

  <text x="44" y="396" fill="#E8DDD3">1.</text>
  <text x="66" y="396" fill="#E8DDD3">[</text>
  <text x="74" y="396" fill="#D97757">tag-memory</text>
  <text x="152" y="396" fill="#E8DDD3">]</text>
  <text x="162" y="396" fill="#EBB299">recurring-bug-zone: src/payments/</text>

  <text x="66" y="414" fill="#D1C4B5">reason: 4 bugs in 3 weeks — missing input validation</text>

  <!-- Apply summary -->
  <line x1="24" y1="446" x2="500" y2="446" stroke="#2f2a25"/>

  <text x="24" y="470" fill="#E8DDD3">Applied:</text>
  <text x="100" y="470" fill="#8BA67E" font-weight="bold">11</text>

  <text x="24" y="490" fill="#E8DDD3">Skipped:</text>
  <text x="100" y="490" fill="#D1C4B5">3</text>

  <!-- Score delta -->
  <text x="24" y="528" fill="#8BA67E">✓</text>
  <text x="44" y="528" fill="#E8DDD3">Intelligence:</text>
  <text x="160" y="528" fill="#BFA390" font-weight="bold" font-size="15">58</text>
  <text x="188" y="528" fill="#E8DDD3">→</text>
  <text x="210" y="528" fill="#D97757" font-weight="bold" font-size="15">72</text>
  <text x="250" y="528" fill="#8BA67E">(+14)</text>
</svg>
